<?xml version="1.0" encoding="UTF-8"?>
<!DOCTYPE svg PUBLIC "-//W3C//DTD SVG 1.1//EN" "http://www.w3.org/Graphics/SVG/1.1/DTD/svg11.dtd">
<!-- Creator: CorelDRAW -->
<svg xmlns="http://www.w3.org/2000/svg" xml:space="preserve" width="600px" height="600px" style="shape-rendering:geometricPrecision; text-rendering:geometricPrecision; image-rendering:optimizeQuality; fill-rule:evenodd; clip-rule:evenodd"
viewBox="0 0 600 480"
 xmlns:xlink="http://www.w3.org/1999/xlink">
 <defs>
  <style type="text/css">
   <![CDATA[
    .fil0 {fill:#1F1A17}
    .fil1 {fill:#7B0101}
    .fil2 {fill:#AD0101}
    .fil3 {fill:#FF0101}
   ]]>
  </style>
 </defs>
 <g id="Livello_x0020_1">
  <metadata id="CorelCorpID_0Corel-Layer"/>
  <g id="_77294240">
   <path id="_78794960" class="fil0" d="M409.033 73.9128l39.4284 22.5792c18.372,2.9184 42.378,8.9172 47.4168,27.396l53.8404 30.1164 -37.2756 127.553 -340.342 147.461 -97.7436 -172.363 -24.0768 -124.312 44.6412 -10.4172c12.096,-18.984 48.9348,-24.258 74.8356,-18.15l46.2936 -11.1516c9.8652,-19.0104 43.4772,-21.6096 65.736,-15.984l37.7748 -9.4212c14.7792,-24.2964 81.5856,-20.766 89.4708,6.6936z"/>
   <polygon id="_77534432" class="fil1" points="83.484,253.286 176.197,416.78 163.607,291.587 61.4616,139.583 "/>
   <path id="_78793888" class="fil1" d="M154.608 209.771l1.2696 12.0648 0 3.81c1.3344,5.724 5.4804,12.234 9.9408,14.8236 6.9084,4.0104 10.1976,4.2672 16.7292,7.4016l-1.9044 -24.7656c-1.5936,-0.7644 -6.1956,-1.8396 -8.628,-2.802 -3.7788,-1.4928 -4.3608,-2.3772 -7.4556,-3.9744 -7.26,-3.7464 -6.768,-6.7776 -10.5864,-12.2736l0.6348 5.7156z"/>
   <path id="_78794504" class="fil1" d="M401.623 120.87l0.6348 -1.9044 -0.6348 1.9044zm-1.9056 15.24l-0.2832 7.614c6.7356,13.4004 10.0248,12.126 23.1432,18.4212l3.1752 -22.86c-8.1444,-1.8972 -22.1244,-9.5772 -22.86,-18.4152l-3.1752 17.7804 0 -2.5404zm1.9056 -12.6996l-0.636 1.9044 0.636 -1.9044z"/>
   <path id="_76363296" class="fil1" d="M325.423 94.2c5.9112,11.1732 11.8176,12.7104 25.3992,15.8748 3.6036,-1.4544 1.4004,-16.62 3.1752,-20.3196 -10.6632,-0.8868 -21.1992,-6.3756 -26.0352,-13.3344l-2.5392 17.7792zm0.6348 -7.62l-0.6348 4.4448 0.6348 -4.4448zm0.6348 -9.5244l-0.6348 5.0796 0.6348 -5.0796z"/>
   <path id="_46626248" class="fil1" d="M223.823 120.87l0 3.81c0,7.1088 15.2724,12.3504 22.2252,13.9704l1.2696 0 0 -19.6848c0,-1.2264 -0.1992,-1.1304 -0.6348,-1.9056 -6.4128,-1.494 -8.6676,-1.7316 -13.98,-4.4352 -6.69,-3.4056 -6.2532,-5.8752 -9.5148,-8.2644l0.6348 16.5096z"/>
   <polygon id="_76281144" class="fil2" points="163.607,291.587 176.197,416.78 504.492,274.54 538.356,158.664 "/>
   <path id="_138040312" class="fil2" d="M180.643 223.105l1.9044 24.7656 18.3588 2.9448c9.2508,0.8712 26.484,-5.0016 32.9352,-7.5312 7.8504,-3.0792 16.3752,-11.4516 18.5556,-20.814l-0.6348 -21.5904c-1.3104,1.8864 -1.476,4.17 -2.9904,5.8992 -1.554,1.7748 -2.5824,2.9532 -4.1424,4.7484 -0.99,1.14 -9.0024,6.2292 -10.8216,6.9576 -8.238,3.2964 -17.8272,6.5256 -29.0352,6.5256l-8.2548 0 -15.8748 -1.9056z"/>
   <path id="_73105800" class="fil2" d="M187.627 132.3l-0.6348 -4.4448 0.6348 4.4448zm-1.2696 -1.9044c-3.7512,5.3976 -1.2876,4.3116 -7.14,9.3696 -2.9388,2.5416 -6.3936,4.2132 -9.9972,5.8764 -6.0804,2.8056 -17.6256,5.0736 -26.6772,5.0736l-10.7952 0 -5.7144 -0.6348 1.8876 0.7248 2.7144 22.116 -2.0628 0.0192 17.1348 1.452 0.6456 -0.1824c5.2044,0 20.7204,-4.3356 24.9732,-6.1404 8.9484,-3.7968 11.3748,-6.822 16.3008,-14.1792l0 -16.5108 0 4.446 -0.48 -0.0084 -0.7896 -11.4216z"/>
   <path id="_65247784" class="fil2" d="M425.753 139.285l-3.1752 22.86c14.3376,7.5864 56.4192,7.2396 60.3252,-9.5244l3.81 -17.7804c-4.5912,2.4288 -5.4768,4.0812 -11.796,6.6192 -4.3212,1.734 -9.8376,2.2704 -15.5088,2.2704l-12.7008 0c-5.0556,0 -17.664,-2.8656 -20.9544,-4.4448zm60.96 0l0.6348 -1.2696 -0.6348 1.2696zm-0.6348 2.5404l0.6348 -1.2708 -0.6348 1.2708zm-1.9056 8.2548l0.6348 -1.2696 -0.6348 1.2696z"/>
   <path id="_78794336" class="fil2" d="M246.683 117.06c0.4356,0.7752 0.6348,0.6792 0.6348,1.9056l0 19.6848 -1.2696 0 14.5728 2.202 6.3816 -0.2976c6.3576,0 17.0664,-2.4396 21.396,-4.6392 8.4108,-4.2732 8.7012,-5.2152 12.894,-13.14l-1.1016 0.012 1.1016 -19.062c-4.8408,6.9672 -3.5808,6.2664 -11.8308,10.3932 -2.1432,1.0716 -14.574,4.2108 -17.3784,4.2108l-13.3356 0 -12.0648 -1.2696zm54.6096 3.1752l0.6348 -6.9852 -0.6348 6.9852z"/>
   <path id="_78794056" class="fil2" d="M330.503 180.56l-1.2696 23.4948 -1.9056 0c4.89,3.1032 26.2884,-0.8448 30.2148,-2.1708 10.17,-3.4332 13.9536,-6.3324 19.3152,-14.3388l0.6348 -2.5404 -0.6348 2.5404 -0.7212 -2.5284c-0.2676,-2.7156 0.7212,-1.8912 0.7212,-4.4568l0.6348 0 0 1.9044 1.2708 -7.62 -0.5088 -4.4448 0.5088 2.5404 0.6348 -2.5404 -0.6348 -4.4448c-12.7116,14.6244 -23.8416,14.6052 -48.2604,14.6052z"/>
   <path id="_77287864" class="fil2" d="M287.958 178.02c0.3312,14.868 23.8368,26.0352 39.3696,26.0352l1.9056 0 1.2696 -23.4948c-8.04,-0.1788 -17.9772,-3.3408 -24.0552,-5.79 -3.3912,-1.3668 -6.6024,-3.5784 -9.4956,-5.7444 -3.8376,-2.874 -4.5984,-5.8476 -7.0896,-7.5156l-0.6348 -3.1752 -1.2696 19.6848z"/>
   <path id="_76284440" class="fil2" d="M400.352 81.5004c-3.8712,2.8356 -3.7848,5.028 -10.656,6.4896 -3.3792,0.7176 -9.8508,3.0348 -14.1084,3.0348l-2.5404 0 -19.05 -1.2696c-1.7748,3.6996 0.4284,18.8652 -3.1752,20.3196 4.5924,2.9136 21.6012,1.6296 27.9408,0.636 9.6696,-1.5156 15.7908,-4.0332 20.3196,-10.7952l-0.7404 0.7404 -0.0936 -0.69 2.1036 -18.4656zm-0.6348 11.43l0.6348 -1.9056 -0.6348 1.9056zm-0.6348 4.4448l0.6348 -1.9056 -0.6348 1.9056z"/>
   <path id="_75416736" class="fil2" d="M103.174 155.16c3.444,5.1444 2.1684,8.7672 9.3048,12.2844 3.9912,1.9668 10.6836,5.496 16.0944,5.496l2.0628 -0.0192 -2.7144 -22.116 -1.8876 -0.7248c-10.3704,0 -19.1904,-6.3816 -24.1308,-12.0648l2.5068 17.8344 -1.236 -0.69zm0 -2.5392l-0.636 -1.9056 0.636 1.9056zm-1.2708 -8.256l-0.6348 -2.5392 0.6348 2.5392z"/>
   <path id="_77679600" class="fil3" d="M252.397 222.47c-2.1804,9.3624 -10.7052,17.7348 -18.5556,20.814 -6.4512,2.5296 -23.6844,8.4024 -32.9352,7.5312l-18.3588 -2.9448c-6.5316,-3.1344 -9.8208,-3.3912 -16.7292,-7.4016 -4.4604,-2.5896 -8.6064,-9.0996 -9.9408,-14.8236l-0.6348 -0.6348 -0.6348 -3.1752 -1.2696 -12.0648 -0.6348 -6.9852 0 -2.5404c0,-19.3944 28.9608,-30.7332 49.6488,-30.7776 15.6252,-0.0324 30.7392,1.8168 43.5324,12.5256 4.8384,4.0512 7.1652,8.2932 7.1484,16.9824 -0.0108,5.0664 1.3308,20.3952 -0.636,23.4948zm-98.424 -18.4152c3.8184,5.496 3.3264,8.5272 10.5864,12.2736 3.0948,1.5972 3.6768,2.4816 7.4556,3.9744 2.4324,0.9624 7.0344,2.0376 8.628,2.802l15.8748 1.9056 8.2548 0c11.208,0 20.7972,-3.2292 29.0352,-6.5256 1.8192,-0.7284 9.8316,-5.8176 10.8216,-6.9576 1.56,-1.7952 2.5884,-2.9736 4.1424,-4.7484 1.5144,-1.7292 1.68,-4.0128 2.9904,-5.8992 1.8816,-22.6056 -24.3492,-30.48 -47.6244,-30.48 -12.1776,0 -25.2264,3.1656 -35.8224,9.2628 -8.6664,4.9872 -15.3588,12.1848 -14.3424,24.3924zm135.254 -45.72l0.6348 3.1752c2.4912,1.668 3.252,4.6416 7.0896,7.5156 2.8932,2.166 6.1044,4.3776 9.4956,5.7444 6.078,2.4492 16.0152,5.6112 24.0552,5.79 24.4188,0 35.5488,0.0192 48.2604,-14.6052 0,-6.9852 1.2132,-9.822 -2.6928,-14.4528 -2.946,-3.4944 -6.006,-5.8908 -10.2192,-8.1948 -6.8484,-3.7452 -19.3416,-7.8324 -29.634,-7.8324l-10.794 0c-15.9612,0 -36.1956,7.05 -36.1956,22.86zm90.1704 12.0648l-0.6348 2.5404 0 1.9044 -1.2708 7.62 0 2.5404 -0.6348 2.5404c-5.3616,8.0064 -9.1452,10.9056 -19.3152,14.3388 -3.9264,1.326 -25.3248,5.274 -30.2148,2.1708 -15.5328,0 -39.0384,-11.1672 -39.3696,-26.0352 -2.1648,-3.4104 0.0288,-14.3412 -0.0072,-19.056 -0.0576,-7.6656 2.7204,-10.6068 6.51,-14.4456 5.2812,-5.3508 20.2932,-10.3128 30.9624,-10.3128l8.8896 0c9.3348,0 27.4488,5.0976 32.91,8.9988 4.1016,2.9304 8.7372,5.1648 11.2632,9.6924 3.624,6.4968 1.0752,10.1448 0.912,17.5032zm-156.21 -66.0396c3.2616,2.3892 2.8248,4.8588 9.5148,8.2644 5.3124,2.7036 7.5672,2.9412 13.98,4.4352l12.0648 1.2696 13.3356 0c2.8044,0 15.2352,-3.1392 17.3784,-4.2108 8.25,-4.1268 6.99,-3.426 11.8308,-10.3932 -0.6216,-7.4808 -4.974,-11.4768 -10.5708,-14.1948 -3.21,-1.5588 -7.4688,-2.838 -12.2496,-3.768 -15.0864,-2.9352 -41.5452,-4.0176 -52.59,9.87 -1.7088,2.148 -2.694,4.848 -2.694,8.7276zm78.7392 8.8896l-0.6348 6.9852 0 2.5404c-4.1928,7.9248 -4.4832,8.8668 -12.894,13.14 -4.3296,2.1996 -15.0384,4.6392 -21.396,4.6392l-6.3816 0.2976 -14.5728 -2.202c-6.9528,-1.62 -22.2252,-6.8616 -22.2252,-13.9704l0 -3.81 -0.9132 -0.654 -0.3564 -9.5064 -0.0612 -9.7764 -50.3016 12.1308c3.9576,1.1496 13.5636,5.4984 14.802,14.7912l0.6348 4.4448 0 5.0796 0 16.5108c-4.926,7.3572 -7.3524,10.3824 -16.3008,14.1792 -4.2528,1.8048 -19.7688,6.1404 -24.9732,6.1404l-0.6456 0.1824 -17.1348 -1.452c-5.4108,0 -12.1032,-3.5292 -16.0944,-5.496 -7.1364,-3.5172 -5.8608,-7.14 -9.3048,-12.2844l-0.636 -4.4448 -1.2696 -8.8896 -0.6336 -11.4264 -39.1728 9.1836 102.145 152.004 374.749 -132.923 -49.5456 -27.5904 -1.4628 6.942 -2.5404 10.7952 -0.6684 3.12 -1.236 0.69c-3.906,16.764 -45.9876,17.1108 -60.3252,9.5244 -13.1184,-6.2952 -16.4076,-5.0208 -23.1432,-18.4212l0.2832 -7.614c0.3636,-3.084 0.7248,-6.174 1.1196,-9.2556 0.54,-4.212 0.3924,-9.5796 3.3696,-12.924 8.016,-9 20.3064,-9.5952 38.208,-9.8364l-40.6488 -23.208 -1.4136 10.1388 -0.6348 1.9056 0 2.5392 -0.6348 1.9056 0 2.5404c-4.5288,6.762 -10.65,9.2796 -20.3196,10.7952 -6.3396,0.9936 -23.3484,2.2776 -27.9408,-0.636 -13.5816,-3.1644 -19.488,-4.7016 -25.3992,-15.8748l-0.2976 -3.1752 0.9324 -8.8896 0.5748 -6.7464 -42.4848 10.5564c6.5568,1.8612 8.6832,2.6592 14.4528,8.4072 5.7612,5.7396 3.3264,9.5508 3.3264,18.8976zm100.966 7.62c0.7356,8.838 14.7156,16.518 22.86,18.4152 3.2904,1.5792 15.8988,4.4448 20.9544,4.4448l12.7008 0c5.6712,0 11.1876,-0.5364 15.5088,-2.2704 6.3192,-2.538 7.2048,-4.1904 11.796,-6.6192 4.4184,-18.9684 -18.4032,-24.744 -34.2396,-27.9912 -10.4892,-2.1492 -18.1392,-1.1256 -29.2632,-0.5868 -7.3056,0.354 -20.3172,5.8956 -20.3172,14.6076zm-300.99 17.1456c4.9404,5.6832 13.7604,12.0648 24.1308,12.0648l5.7144 0.6348 10.7952 0c9.0516,0 20.5968,-2.268 26.6772,-5.0736 3.6036,-1.6632 7.0584,-3.3348 9.9972,-5.8764 5.8524,-5.058 3.3888,-3.972 7.14,-9.3696 0,-8.6628 -7.9908,-14.4072 -15.8544,-16.53 -2.6952,-0.7284 -5.3388,-1.3176 -7.9428,-1.7748 -15.0456,-2.6376 -51.3648,-1.0956 -59.2128,16.0884 -1.224,2.6832 -1.7712,5.9076 -1.4448,9.8364z"/>
   <path id="_77566768" class="fil3" d="M327.962 76.4208c4.836,6.9588 15.372,12.4476 26.0352,13.3344l19.05 1.2696 2.5404 0c4.2576,0 10.7292,-2.3172 14.1084,-3.0348 6.8712,-1.4616 6.7848,-3.654 10.656,-6.4896 0,-2.8008 -0.3516,-5.0268 -1.0164,-6.8364 -5.802,-15.7968 -54.5508,-17.8092 -66.9384,-7.3512 -2.706,2.2848 -4.4352,5.2812 -4.4352,9.108z"/>
  </g>
 </g>
</svg>
