<?xml version="1.0" encoding="UTF-8"?>
<!DOCTYPE svg PUBLIC "-//W3C//DTD SVG 1.1//EN" "http://www.w3.org/Graphics/SVG/1.1/DTD/svg11.dtd">
<svg version="1.1" id="Layer_1" xmlns="http://www.w3.org/2000/svg" xmlns:xlink="http://www.w3.org/1999/xlink" width="198" height="198" viewBox="0 0 198 198" overflow="visible" enable-background="new 0 0 198 198" xml:space="preserve">
<polyline fill="none" stroke="#00FF00" stroke-width="3" stroke-dasharray="3 3" points="178.997,19.002 114.598,51.202  146.797,115.601 17.999,19.002 "/>
<polyline fill="none" stroke="#FF0000" stroke-width="3" points="114.598,51.202 50.199,83.402 82.398,147.8 178.997,19.002  178.997,180 "/>
<line fill="none" stroke="#FF0000" stroke-width="3" x1="82.398" y1="147.8" x2="146.797" y2="115.601"/>
<polyline fill="none" stroke="#FF0000" stroke-width="3" points="18,180 17.999,19.002 178.997,19.002 "/>
<line fill="none" stroke="#00FF00" stroke-width="3" stroke-dasharray="3 3" x1="50.199" y1="83.402" x2="178.997" y2="180"/>
<polyline fill="none" stroke="#00A0C6" stroke-width="3" stroke-dasharray="1 1" points="114.598,51.202 18,180 82.398,147.8 "/>
<polyline fill="none" stroke="#00A0C6" stroke-width="3" stroke-dasharray="1 1" points="18,180 178.997,180 146.797,115.601 "/>
<line fill="none" stroke="#00A0C6" stroke-width="3" stroke-dasharray="1 1" x1="17.999" y1="19.002" x2="50.199" y2="83.402"/>
<circle fill="#FFFFFF" stroke="#000000" stroke-width="2" cx="114.598" cy="51.202" r="9"/>
<circle fill="#FFFFFF" stroke="#000000" stroke-width="2" cx="17.999" cy="19.003" r="9"/>
<circle fill="#FFFFE1" stroke="#000000" stroke-width="2" cx="50.199" cy="83.401" r="9"/>
<circle fill="#FFFFE1" stroke="#000000" stroke-width="2" cx="18" cy="180" r="9"/>
<circle fill="#FFFFFF" stroke="#000000" stroke-width="2" cx="82.398" cy="147.801" r="9"/>
<circle fill="#FFFFFF" stroke="#000000" stroke-width="2" cx="178.998" cy="179.999" r="9"/>
<circle fill="#FFFFE1" stroke="#000000" stroke-width="2" cx="146.798" cy="115.601" r="9"/>
<circle fill="#FFFFE1" stroke="#000000" stroke-width="2" cx="178.996" cy="19.002" r="9"/>
<rect fill="none" width="198" height="198"/>
</svg>